#!OML:ASF H:\Terrain\Patient Classification 1\Animal1\Tuesday\Animal1.ASF
:FULLY-SPECIFIED
:DEGREES
662
root 20.7344 15.4751 -3.54597 -161.983 15.9469 -169.325
lowerback 6.70532 -1.63281 1.59782
upperback -2.13535 -1.96332 1.01862
thorax -6.00749 -1.0007 0.395729
lowerneck 3.7214 3.324 -4.2344
upperneck 26.667 7.55263 1.87624
head 7.40548 4.41756 1.84613
rclavicle -4.33351e-014 3.18055e-014
rhumerus 34.5226 -16.2299 9.59895
rradius 46.2856
rwrist -34.5294
rhand 10.9097 17.992
rfingers 7.12502
rthumb 35.9886 -8.32733
lclavicle -4.33351e-014 3.18055e-014
lhumerus 22.9968 -6.00281 -1.18622
lradius 63.4384
lwrist -11.4908
lhand 25.9706 29.0009
lfingers 7.12502
lthumb 50.0507 -309.803
rfemur -27.0205 -19.8413 19.6722
rtibia 78.7418
rfoot 10.3548 -8.96449
rtoes -10.9216
lfemur -51.0292 17.9669 -32.2415
ltibia 57.7898
lfoot -20.0705 2.59086
ltoes 21.9523
663
root 20.8293 15.4757 -3.70174 -162.198 15.064 -169.5
lowerback 6.91856 -1.90441 1.63169
upperback -2.15962 -2.31625 1.0419
thorax -6.15816 -1.17549 0.451782
lowerneck 4.39152 3.7789 -5.40005
upperneck 25.699 7.79225 2.9941
head 6.86545 4.50564 2.34119
rclavicle -7.7526e-014 -1.43125e-014
rhumerus 35.3752 -18.567 8.77034
rradius 46.2749
rwrist -34.7858
rhand 8.65234 17.9963
rfingers 7.12502
rthumb 33.847 -8.82129
lclavicle -7.7526e-014 -1.43125e-014
lhumerus 23.0195 -7.66363 -1.86475
lradius 64.9179
lwrist -9.26341
lhand 29.0161 26.0167
lfingers 7.12502
lthumb 52.8203 -314.378
rfemur -28.8812 -20.334 19.8479
rtibia 80.1055
rfoot 9.0827 -10.403
rtoes -6.92021
lfemur -50.2833 17.5109 -31.7696
ltibia 58.0899
lfoot -20.004 3.22744
ltoes 17.7099
664
root 20.9256 15.4663 -3.85994 -162.392 14.1444 -169.587
lowerback 7.06767 -2.13333 1.79042
upperback -2.17939 -2.59672 1.11893
thorax -6.27039 -1.31734 0.484589
lowerneck 4.34933 3.97262 -6.09846
upperneck 25.4788 7.93738 3.46622
head 6.74574 4.54425 2.60292
rclavicle -5.12864e-014 -1.11319e-014
rhumerus 35.9866 -20.6665 8.32333
rradius 46.4628
rwrist -35.3729
rhand 6.39285 18.3489
rfingers 7.12502
rthumb 31.6976 -8.9172
lclavicle -5.12864e-014 -1.11319e-014
lhumerus 23.2459 -9.36889 -2.7329
lradius 66.3829
lwrist -6.72897
lhand 32.9053 23.2369
lfingers 7.12502
lthumb 56.2983 -319.607
rfemur -30.698 -20.701 20.1703
rtibia 81.2201
rfoot 7.91359 -11.4906
rtoes -3.39531
lfemur -49.3962 17.0724 -31.2055
ltibia 58.3772
lfoot -20.1945 3.83246
ltoes 13.0107
665
root 21.0226 15.4645 -4.01877 -162.541 13.2144 -169.597
lowerback 7.14111 -2.36553 1.86029
upperback -2.16352 -2.88325 1.31277
thorax -6.29179 -1.45532 0.686307
lowerneck 3.66858 3.9176 -6.05818
upperneck 26.0317 8.03179 3.18066
head 7.05752 4.5693 2.55993
rclavicle -6.20208e-014 -3.81667e-014
rhumerus 36.9928 -22.9021 7.57521
rradius 46.5202
rwrist -35.7439
rhand 3.71391 18.8345
rfingers 7.12502
rthumb 29.1425 -8.90461
lclavicle -6.20208e-014 -3.81667e-014
lhumerus 23.4814 -10.9926 -3.53715
lradius 67.6572
lwrist -4.24818
lhand 36.8467 20.9952
lfingers 7.12502
lthumb 59.7338 -324.948
rfemur -32.5256 -20.8905 20.5959
rtibia 82.0732
rfoot 6.9897 -12.6078
rtoes -0.305904
lfemur -48.5349 16.564 -30.5179
ltibia 58.613
lfoot -20.678 4.03805
ltoes 9.43389
666
root 21.1154 15.4832 -4.17693 -162.748 12.2415 -169.729
lowerback 7.32828 -2.64261 1.77288
upperback -2.16755 -3.24233 1.49931
thorax -6.38934 -1.6231 0.984682
lowerneck 3.07479 3.91537 -5.74977
upperneck 26.6023 8.22733 2.79957
head 7.37423 4.66095 2.44404
rclavicle -1.27222e-014 -1.11319e-014
rhumerus 38.6306 -25.2491 6.10682
rradius 46.413
rwrist -35.6121
rhand 1.40782 19.294
rfingers 7.12502
rthumb 26.9381 -8.80599
lclavicle -1.27222e-014 -1.11319e-014
lhumerus 23.4946 -12.4152 -4.21076
lradius 68.995
lwrist -2.04506
lhand 41.3024 19.5568
lfingers 7.12502
lthumb 63.4656 -330.902
rfemur -34.3477 -21.0736 20.9067
rtibia 82.6309
rfoot 5.55901 -13.7244
rtoes 1.06287
lfemur -47.7368 15.8816 -29.883
ltibia 58.8138
lfoot -20.9645 3.79971
ltoes 7.18372
667
root 21.2057 15.5102 -4.3471 -163.075 11.3482 -170.123
lowerback 7.46612 -2.87724 1.54811
upperback -2.12894 -3.57128 1.57193
thorax -6.40847 -1.77459 1.23421
lowerneck 2.68671 3.97312 -5.62693
upperneck 26.7961 8.39125 2.61089
head 7.5147 4.7301 2.39432
rclavicle 7.35503e-014 1.59028e-015
rhumerus 40.1183 -27.4673 4.69269
rradius 46.6094
rwrist -35.4612
rhand -0.589402 19.773
rfingers 7.12502
rthumb 25.0257 -8.60762
lclavicle 7.35503e-014 1.59028e-015
lhumerus 23.4046 -13.5066 -4.74074
lradius 70.4707
lwrist -0.0441806
lhand 46.029 18.5561
lfingers 7.12502
lthumb 67.1623 -338.336
rfemur -36.0325 -21.2446 20.8445
rtibia 82.9172
rfoot 4.33376 -14.4587
rtoes 1.40075
lfemur -46.6918 15.2284 -29.5362
ltibia 58.9447
lfoot -21.1248 3.36921
ltoes 6.14312
668
root 21.2971 15.5315 -4.52284 -163.342 10.4607 -170.235
lowerback 7.43684 -3.07522 1.68077
upperback -2.01113 -3.81694 1.67608
thorax -6.26789 -1.89784 1.29384
lowerneck 2.10439 3.96419 -5.53505
upperneck 27.1242 8.48081 2.44256
head 7.73625 4.75796 2.36767
rclavicle -3.04141e-014 3.18055e-015
rhumerus 41.1312 -29.5666 3.63215
rradius 47.2659
rwrist -35.8319
rhand -2.44068 20.4378
rfingers 7.12502
rthumb 23.2507 -8.17848
lclavicle -3.04141e-014 3.18055e-015
lhumerus 23.3718 -14.3822 -5.24803
lradius 71.8443
lwrist 1.92441
lhand 49.8958 18.0062
lfingers 7.12502
lthumb 69.8833 -345.89
rfemur -37.526 -21.2016 21.053
rtibia 82.8471
rfoot 3.78355 -15.2806
rtoes 1.86542
lfemur -45.5695 14.6172 -28.8312
ltibia 59.0832
lfoot -21.6352 2.30778
ltoes 9.06593
